<?xml version="1.0" standalone="no"?>
<!DOCTYPE svg PUBLIC "-//W3C//DTD SVG 20010904//EN"
 "http://www.w3.org/TR/2001/REC-SVG-20010904/DTD/svg10.dtd">
<svg version="1.0" xmlns="http://www.w3.org/2000/svg"
 width="166.000000pt" height="166.000000pt" viewBox="0 0 166.000000 166.000000"
 preserveAspectRatio="xMidYMid meet">
<metadata>
Created by potrace 1.11, written by Peter Selinger 2001-2013
</metadata>
<g transform="translate(0.000000,166.000000) scale(0.100000,-0.100000)"
fill="#000000" stroke="none">
<path d="M0 980 c0 -636 1 -680 18 -689 16 -10 16 -10 -1 -11 -16 0 -17 -11
-16 -120 0 -70 5 -118 10 -114 5 3 7 9 5 13 -3 4 3 13 14 21 10 7 16 19 13 25
-2 7 9 17 26 23 17 6 31 13 31 16 0 3 -7 3 -15 0 -8 -4 -15 -1 -15 5 0 16 36
14 53 -4 8 -8 17 -12 20 -9 9 9 48 -56 41 -67 -4 -7 -3 -9 4 -5 6 3 16 0 24
-7 7 -8 19 -12 27 -9 7 2 23 -7 36 -22 29 -34 48 -33 87 4 35 34 34 36 -14 16
-32 -14 -37 -13 -66 4 -24 15 -32 27 -32 49 0 23 4 29 23 29 12 -1 36 1 53 3
28 3 31 6 24 29 -4 14 -6 31 -4 38 1 7 0 8 -3 2 -3 -8 -9 -7 -19 1 -11 9 -14
7 -14 -9 0 -18 -4 -20 -35 -15 -23 4 -35 2 -35 -6 0 -6 -4 -11 -9 -11 -6 0 -7
16 -4 35 4 28 2 35 -11 35 -9 0 -15 5 -13 11 1 6 -4 14 -10 16 -16 6 -17 -23
-2 -33 8 -4 2 -12 -16 -21 -25 -14 -29 -13 -51 8 -13 12 -24 19 -24 15 0 -4
-7 0 -16 8 -26 27 -14 59 27 71 42 12 71 33 63 46 -3 5 2 9 10 9 8 0 18 5 22
12 4 6 3 8 -4 4 -6 -3 -13 -2 -17 4 -4 6 -15 4 -30 -6 -14 -9 -33 -13 -44 -9
-17 5 -20 13 -16 41 2 19 0 34 -5 34 -6 0 -10 -4 -10 -10 0 -5 -5 -10 -11 -10
-8 0 -8 5 1 15 9 10 9 15 1 15 -18 0 22 35 56 49 51 21 73 -8 33 -44 -19 -17
-20 -17 -26 0 -7 16 -8 16 -16 -4 -5 -14 -4 -29 2 -39 9 -14 10 -13 5 6 -8 29
3 28 36 -4 24 -23 80 -36 95 -21 7 7 -18 80 -30 89 -17 12 15 37 45 35 16 -1
29 -6 29 -11 0 -5 9 1 20 14 11 13 20 30 20 39 0 13 -2 13 -9 3 -7 -11 -9 -10
-15 3 -3 9 -10 13 -16 10 -6 -3 -10 4 -11 17 -1 18 -3 15 -12 -12 -7 -24 -12
-29 -14 -17 -3 9 -14 17 -26 18 -12 0 -17 3 -11 5 13 5 7 41 -9 62 -5 6 -8 12
-6 13 45 6 94 3 104 -8 8 -7 18 -13 24 -13 19 0 86 -41 114 -70 30 -32 36 -77
10 -82 -11 -2 -17 -16 -20 -44 -3 -35 0 -42 21 -54 14 -7 23 -17 19 -23 -3 -5
-9 -4 -13 3 -6 9 -9 9 -15 0 -4 -6 0 -19 9 -29 9 -10 16 -23 16 -31 0 -10 3
-10 15 0 12 10 13 16 3 27 -10 12 -9 17 5 24 25 15 21 32 -14 51 -26 15 -28
20 -19 38 13 24 38 26 47 5 3 -9 15 -15 26 -13 18 2 23 -4 28 -35 3 -21 11
-43 17 -49 6 -6 8 -17 5 -24 -4 -10 0 -12 13 -7 13 5 16 3 12 -8 -9 -24 25
-94 47 -97 12 -2 16 0 9 5 -13 10 -28 44 -25 61 1 6 -3 12 -9 12 -6 0 -9 4 -6
9 4 5 1 22 -4 37 -12 30 -4 46 11 24 11 -15 11 -14 -8 40 -3 8 2 5 11 -7 13
-18 22 -44 25 -75 1 -5 8 -8 16 -8 8 0 13 -6 11 -12 -1 -7 -1 -10 1 -5 10 17
23 5 17 -17 -3 -14 -2 -31 2 -38 8 -12 11 -25 17 -86 2 -20 3 -21 14 -6 10 13
9 20 -3 32 -11 10 -12 17 -4 22 12 7 3 40 -11 40 -5 0 -9 7 -9 15 0 8 7 15 15
15 8 0 15 9 15 20 0 14 -7 20 -23 20 -12 0 -28 9 -35 21 -13 20 -12 21 20 14
18 -4 37 -11 42 -16 13 -12 29 -11 21 1 -3 6 -1 10 4 10 6 0 11 -6 11 -13 0
-7 12 -13 28 -14 15 0 19 1 10 4 -31 8 -20 18 17 17 19 -1 35 2 35 7 0 6 -6 9
-12 8 -33 -4 -41 1 -28 16 11 13 9 15 -11 13 -17 -2 -23 2 -21 12 1 10 -2 9
-13 -4 -14 -19 -20 -12 -16 16 0 4 -5 5 -13 2 -7 -3 -16 2 -19 10 -4 9 -12 16
-19 16 -18 1 -62 39 -55 47 4 3 13 0 22 -7 10 -8 15 -9 15 -2 0 6 -9 16 -20
22 -11 6 -18 15 -16 19 3 4 -6 6 -19 3 -19 -3 -25 0 -25 13 0 11 5 15 15 11 8
-3 19 3 25 13 7 15 4 25 -18 46 l-27 28 25 -8 c14 -4 25 -8 25 -9 1 0 7 -14
13 -30 l13 -29 19 39 c21 40 27 90 10 79 -5 -3 -10 -1 -10 4 0 19 24 12 52
-13 14 -14 28 -22 32 -19 3 3 12 0 20 -6 8 -7 41 -15 73 -18 l58 -6 -62 46
c-66 49 -95 85 -100 123 -5 36 -31 92 -47 101 -8 5 -18 26 -21 48 -6 37 -5 41
15 42 12 1 24 4 26 6 7 7 -15 57 -25 57 -13 0 8 81 27 102 25 30 97 52 130 40
24 -8 33 -7 46 6 9 9 16 11 16 5 0 -6 11 -10 25 -10 72 0 99 -60 98 -218 0
-119 -6 -211 -12 -194 -2 6 -13 -11 -26 -38 -12 -26 -21 -49 -19 -51 1 -2 12
6 24 18 15 15 25 19 32 12 8 -8 6 -16 -6 -27 -9 -9 -13 -21 -10 -26 8 -14 16
-56 19 -108 1 -25 9 -49 17 -55 15 -11 16 -42 2 -54 -4 -4 -4 1 -1 11 5 14 3
18 -11 15 -10 -2 -16 -11 -14 -22 2 -13 -1 -17 -10 -13 -8 3 -25 -4 -39 -14
-13 -10 -19 -19 -13 -19 5 0 15 5 22 12 6 6 15 8 19 4 4 -4 1 -11 -7 -16 -12
-7 -10 -11 10 -18 20 -7 26 -6 32 7 4 10 7 11 7 3 1 -7 5 -11 11 -7 5 3 6 13
3 23 -4 11 3 8 22 -10 23 -22 26 -30 17 -41 -12 -14 -7 -47 7 -47 17 1 58 57
48 66 -6 6 -34 -21 -40 -38 -2 -7 -8 -10 -12 -5 -5 4 6 23 24 41 35 36 35 64
0 46 -11 -6 -26 -7 -35 -2 -13 7 -12 11 6 27 12 11 20 13 20 6 0 -7 5 -9 13
-4 6 4 20 6 29 5 16 -3 29 13 47 60 7 20 6 24 -10 25 -14 1 -19 -5 -19 -22 0
-35 -14 -38 -46 -9 -19 17 -25 28 -17 31 7 2 13 9 13 14 0 4 -6 6 -12 4 -7 -3
-20 -1 -28 4 -12 9 -12 12 3 29 19 20 23 37 7 27 -6 -3 -14 4 -19 17 -6 13
-10 17 -10 11 -1 -18 -21 -16 -21 1 0 12 49 33 54 24 1 -2 11 -16 21 -33 10
-16 18 -42 17 -57 -2 -22 2 -28 18 -28 12 0 18 4 15 10 -4 6 -1 18 6 26 14 17
21 84 9 84 -5 0 -10 -9 -12 -21 -3 -21 -3 -21 -25 -1 -20 17 -21 21 -8 38 17
23 20 48 4 38 -6 -3 -15 -1 -19 6 -4 7 -9 1 -13 -18 -3 -17 -12 -29 -21 -29
-12 0 -14 7 -9 26 6 23 5 25 -10 12 -15 -12 -17 -11 -17 3 0 10 9 16 25 16 28
0 34 17 8 22 -15 3 -14 6 6 25 19 18 21 25 12 42 -7 12 -9 21 -5 21 12 0 64
-55 64 -68 0 -7 11 -17 23 -21 13 -5 30 -24 37 -43 8 -18 22 -43 31 -56 10
-13 21 -37 25 -55 3 -17 13 -42 21 -54 9 -14 12 -33 8 -56 -4 -19 -2 -44 4
-55 6 -11 12 -35 13 -53 1 -19 7 -37 13 -41 7 -5 7 -8 -1 -8 -6 0 -9 -13 -6
-30 2 -17 9 -30 14 -30 20 0 68 35 68 49 0 12 3 12 12 3 7 -7 29 -12 49 -12
38 0 56 -19 37 -38 -6 -6 2 -9 25 -9 23 1 33 5 30 13 -3 7 -11 10 -19 7 -8 -3
-14 1 -14 10 0 17 -27 31 -54 28 -10 -2 -23 3 -27 11 -7 10 -9 10 -9 0 0 -7
-4 -11 -9 -8 -12 8 -7 39 7 44 7 2 12 -2 12 -8 0 -7 6 -10 14 -7 8 3 17 3 19
-1 2 -4 2 -1 1 5 -2 7 0 13 5 13 4 0 8 7 8 15 0 8 -5 15 -11 15 -7 0 -7 3 0 8
7 4 14 16 17 27 4 17 5 17 6 -4 1 -16 6 -21 15 -18 17 7 27 -13 20 -40 -4 -14
2 -23 21 -31 34 -16 35 -16 35 11 0 28 -15 51 -28 43 -6 -4 -7 8 0 37 5 23 13
43 18 45 5 2 9 251 10 588 l0 584 -830 0 -830 0 0 -680z m970 396 c0 -3 -4 -8
-10 -11 -5 -3 -10 -1 -10 4 0 6 5 11 10 11 6 0 10 -2 10 -4z m-20 -45 c17 -33
12 -51 -15 -51 -18 0 -25 -5 -25 -20 0 -20 -29 -28 -44 -12 -4 4 -11 7 -14 8
-21 2 -62 25 -62 34 0 13 27 13 35 0 4 -6 11 -7 17 -4 6 4 13 1 17 -5 11 -17
42 -2 39 19 -3 18 18 50 33 50 5 0 13 -9 19 -19z m40 9 c0 -5 -4 -10 -10 -10
-5 0 -10 5 -10 10 0 6 5 10 10 10 6 0 10 -4 10 -10z m-131 -21 c-16 -10 -23
-4 -14 10 3 6 11 8 17 5 6 -4 5 -9 -3 -15z m168 -9 c2 -27 0 -29 -17 -20 -17
9 -18 14 -7 30 16 27 22 25 24 -10z m-237 6 c0 -3 -4 -8 -10 -11 -5 -3 -10 -1
-10 4 0 6 5 11 10 11 6 0 10 -2 10 -4z m207 -66 c0 -16 -4 -27 -9 -24 -4 3 -8
16 -8 30 0 13 4 24 8 24 5 0 9 -13 9 -30z m150 -12 c-3 -7 -5 -2 -5 12 0 14 2
19 5 13 2 -7 2 -19 0 -25z m-117 1 c0 -6 -4 -7 -10 -4 -5 3 -10 11 -10 16 0 6
5 7 10 4 6 -3 10 -11 10 -16z m70 -21 c0 -13 -23 -5 -28 10 -2 7 2 10 12 6 9
-3 16 -11 16 -16z m-205 2 c3 -5 2 -10 -4 -10 -5 0 -13 5 -16 10 -3 6 -2 10 4
10 5 0 13 -4 16 -10z m135 -10 c0 -5 -2 -10 -4 -10 -3 0 -8 5 -11 10 -3 6 -1
10 4 10 6 0 11 -4 11 -10z m110 6 c0 -3 -4 -8 -10 -11 -5 -3 -10 -1 -10 4 0 6
5 11 10 11 6 0 10 -2 10 -4z m-350 -16 c0 -5 -4 -10 -10 -10 -5 0 -10 5 -10
10 0 6 5 10 10 10 6 0 10 -4 10 -10z m338 -32 c2 -9 -6 -18 -18 -21 -11 -3
-20 -1 -20 4 0 5 5 9 11 9 6 0 8 7 5 16 -4 10 -1 14 6 12 7 -3 14 -12 16 -20z
m-819 -30 c-22 -8 -39 -3 -39 12 0 4 9 6 20 3 13 -3 20 0 20 8 0 11 2 11 10
-1 7 -11 4 -17 -11 -22z m61 0 c0 -6 -6 -5 -15 2 -8 7 -15 14 -15 16 0 2 7 1
15 -2 8 -4 15 -11 15 -16z m757 -14 c-3 -3 -12 -4 -19 -1 -8 3 -5 6 6 6 11 1
17 -2 13 -5z m-847 -24 c0 -5 -5 -10 -11 -10 -5 0 -7 5 -4 10 3 6 8 10 11 10
2 0 4 -4 4 -10z m860 -10 c0 -5 -4 -10 -10 -10 -5 0 -10 5 -10 10 0 6 5 10 10
10 6 0 10 -4 10 -10z m5 -40 c3 -5 1 -10 -4 -10 -6 0 -11 5 -11 10 0 6 2 10 4
10 3 0 8 -4 11 -10z m105 0 c0 -5 -4 -10 -10 -10 -5 0 -10 5 -10 10 0 6 5 10
10 10 6 0 10 -4 10 -10z m100 0 c0 -5 -5 -10 -11 -10 -5 0 -7 5 -4 10 3 6 8
10 11 10 2 0 4 -4 4 -10z m-140 -15 c0 -8 -4 -15 -10 -15 -5 0 -7 7 -4 15 4 8
8 15 10 15 2 0 4 -7 4 -15z m155 -25 c-3 -5 -11 -10 -16 -10 -6 0 -7 5 -4 10
3 6 11 10 16 10 6 0 7 -4 4 -10z m-5 -35 c11 -13 10 -14 -4 -9 -9 3 -16 10
-16 15 0 13 6 11 20 -6z m-1180 -15 c0 -5 -4 -10 -9 -10 -6 0 -13 5 -16 10 -3
6 1 10 9 10 9 0 16 -4 16 -10z m1050 -4 c0 -3 -4 -8 -10 -11 -5 -3 -10 -1 -10
4 0 6 5 11 10 11 6 0 10 -2 10 -4z m200 -6 c0 -5 -4 -10 -10 -10 -5 0 -10 5
-10 10 0 6 5 10 10 10 6 0 10 -4 10 -10z m-30 -10 c0 -5 -4 -10 -10 -10 -5 0
-10 5 -10 10 0 6 5 10 10 10 6 0 10 -4 10 -10z m70 0 c0 -5 -2 -10 -4 -10 -3
0 -8 5 -11 10 -3 6 -1 10 4 10 6 0 11 -4 11 -10z m14 -35 c-5 -11 -2 -13 12
-8 12 4 15 3 10 -5 -4 -7 -14 -12 -22 -12 -8 0 -14 -4 -14 -10 0 -5 -5 -10
-12 -10 -9 0 -9 3 0 12 7 7 12 20 12 30 0 10 4 18 10 18 5 0 7 -7 4 -15z
m-957 -17 c-3 -8 -6 -5 -6 6 -1 11 2 17 5 13 3 -3 4 -12 1 -19z m911 -58 c-7
-10 -14 -18 -15 -16 -6 6 9 36 18 36 5 0 4 -9 -3 -20z m-1353 -10 c-3 -5 -11
-10 -16 -10 -6 0 -7 5 -4 10 3 6 11 10 16 10 6 0 7 -4 4 -10z m1450 -10 c7 0
16 6 18 13 3 7 6 6 6 -5 1 -9 -4 -20 -9 -23 -13 -8 -40 13 -39 29 0 7 2 6 6
-1 2 -7 11 -13 18 -13z m-1390 0 c3 -5 1 -10 -4 -10 -6 0 -11 5 -11 10 0 6 2
10 4 10 3 0 8 -4 11 -10z m70 0 c7 -12 -2 -12 -30 0 -19 8 -19 9 2 9 12 1 25
-3 28 -9z m1275 6 c0 -3 -4 -8 -10 -11 -5 -3 -10 -1 -10 4 0 6 5 11 10 11 6 0
10 -2 10 -4z m-1245 -16 c3 -5 1 -10 -4 -10 -6 0 -11 5 -11 10 0 6 2 10 4 10
3 0 8 -4 11 -10z m-115 -30 c0 -5 -4 -10 -9 -10 -6 0 -13 5 -16 10 -3 6 1 10
9 10 9 0 16 -4 16 -10z m1420 -10 c0 -5 -5 -10 -11 -10 -5 0 -7 5 -4 10 3 6 8
10 11 10 2 0 4 -4 4 -10z m-1286 -25 c-4 -8 -10 -15 -15 -15 -4 0 -6 7 -3 15
4 8 10 15 15 15 4 0 6 -7 3 -15z m-174 -5 c0 -5 -4 -10 -10 -10 -5 0 -10 5
-10 10 0 6 5 10 10 10 6 0 10 -4 10 -10z m1445 0 c3 -5 -1 -10 -10 -10 -9 0
-13 5 -10 10 3 6 8 10 10 10 2 0 7 -4 10 -10z m-1365 -14 c0 -3 -4 -8 -10 -11
-5 -3 -10 -1 -10 4 0 6 5 11 10 11 6 0 10 -2 10 -4z m225 -33 c9 -20 13 -41
11 -47 -2 -6 -5 -2 -5 9 -1 14 -4 16 -9 7 -5 -7 -15 -10 -24 -7 -12 5 -13 12
-4 40 6 19 12 35 13 35 2 0 10 -17 18 -37z m946 18 c-6 -10 -7 -22 -3 -27 4
-5 -1 -2 -10 5 -18 14 -25 27 -9 17 5 -3 11 1 15 9 3 8 8 15 11 15 3 0 1 -8
-4 -19z m-631 -30 c0 -5 -7 -11 -15 -15 -15 -5 -20 5 -8 17 9 10 23 9 23 -2z
m-610 -11 c0 -5 -5 -10 -11 -10 -5 0 -7 5 -4 10 3 6 8 10 11 10 2 0 4 -4 4
-10z m59 -3 c8 -11 5 -16 -14 -25 -27 -13 -30 -23 -15 -53 6 -11 7 -19 2 -19
-6 0 -12 9 -15 20 -3 12 -14 20 -29 21 -21 1 -21 1 5 11 17 6 26 15 23 24 -3
9 0 11 11 7 12 -5 15 -2 10 10 -8 20 6 22 22 4z m458 -9 c-3 -8 -6 -5 -6 6 -1
11 2 17 5 13 3 -3 4 -12 1 -19z m827 7 c3 -8 3 -15 0 -15 -3 0 -12 7 -20 15
-13 13 -13 15 -1 15 8 0 17 -7 21 -15z m61 5 c-4 -7 3 -9 22 -5 26 5 26 5 5
-5 -18 -7 -29 -6 -45 5 l-21 15 22 0 c14 0 20 -4 17 -10z m-1305 -10 c0 -5 -4
-10 -10 -10 -5 0 -10 5 -10 10 0 6 5 10 10 10 6 0 10 -4 10 -10z m1380 0 c0
-5 -4 -10 -10 -10 -5 0 -10 5 -10 10 0 6 5 10 10 10 6 0 10 -4 10 -10z m-1520
-40 c0 -21 -23 -21 -43 0 -9 10 -9 11 1 6 7 -4 15 -1 18 8 8 20 24 11 24 -14z
m1315 20 c3 -5 1 -10 -4 -10 -6 0 -11 5 -11 10 0 6 2 10 4 10 3 0 8 -4 11 -10z
m22 -22 c-3 -8 -6 -5 -6 6 -1 11 2 17 5 13 3 -3 4 -12 1 -19z m208 12 c-3 -5
-10 -10 -16 -10 -5 0 -9 5 -9 10 0 6 7 10 16 10 8 0 12 -4 9 -10z m-380 -10
c3 -5 1 -10 -4 -10 -6 0 -11 5 -11 10 0 6 2 10 4 10 3 0 8 -4 11 -10z m-635
-25 c0 -8 -5 -15 -10 -15 -6 0 -16 -11 -22 -25 -9 -19 -14 -22 -25 -14 -19 17
-16 29 8 29 12 0 23 8 26 20 6 23 23 27 23 5z m1012 -6 c24 -13 31 -11 24 6
-3 8 -1 15 4 15 10 0 7 -51 -5 -87 -4 -13 -11 -23 -16 -23 -5 0 -9 -7 -9 -15
0 -8 5 -15 11 -15 5 0 7 -5 4 -11 -5 -6 -11 -4 -19 7 -13 17 -57 21 -96 9 -12
-4 -20 -2 -20 5 0 6 -5 10 -12 8 -14 -5 -17 -40 -7 -82 l7 -31 1 29 c1 22 4
27 12 19 8 -8 8 -17 0 -31 -6 -10 -7 -22 -4 -26 3 -3 2 -6 -4 -6 -17 0 -35 28
-35 55 0 14 -5 22 -10 19 -6 -4 -7 2 -3 16 5 17 4 21 -6 15 -8 -4 -1 4 15 19
16 14 35 26 43 26 10 0 12 6 8 21 -5 15 -4 19 4 15 6 -4 11 -2 11 3 0 15 -13
14 -29 -1 -10 -11 -11 -9 -5 6 5 14 3 17 -7 14 -8 -3 -12 -12 -11 -19 2 -8 0
-11 -4 -6 -15 15 -11 48 5 46 9 -1 23 1 31 4 34 13 46 14 75 9 17 -2 38 -9 47
-13z m-1518 0 c3 -3 -6 -6 -19 -7 -14 -1 -25 2 -25 6 0 9 36 9 44 1z m1336
-24 c0 -8 -4 -15 -10 -15 -5 0 -10 7 -10 15 0 8 5 15 10 15 6 0 10 -7 10 -15z
m-1314 -10 c17 -16 14 -18 -10 -9 -9 3 -16 10 -16 15 0 13 9 11 26 -6z m59 5
c3 -5 1 -10 -4 -10 -6 0 -11 5 -11 10 0 6 2 10 4 10 3 0 8 -4 11 -10z m32 -62
c-3 -8 -6 -5 -6 6 -1 11 2 17 5 13 3 -3 4 -12 1 -19z m-1 -48 c8 0 14 5 14 10
0 16 17 12 24 -5 3 -9 1 -15 -7 -14 -23 3 -37 -1 -37 -10 0 -5 10 -7 23 -5 20
4 20 4 2 -5 -25 -11 -62 19 -49 40 6 10 9 10 12 1 2 -7 10 -12 18 -12z m430
-6 c-3 -9 -6 -22 -6 -30 0 -8 -4 -14 -8 -14 -5 0 -7 14 -4 30 2 17 9 30 14 30
6 0 7 -7 4 -16z m779 6 c3 -5 2 -10 -4 -10 -5 0 -13 5 -16 10 -3 6 -2 10 4 10
5 0 13 -4 16 -10z m-722 -35 c4 -8 2 -17 -2 -20 -5 -2 -11 4 -14 15 -6 23 8
27 16 5z m42 7 c18 -12 16 -52 -2 -52 -9 0 -14 3 -10 6 3 3 2 17 -3 30 -10 24
-4 30 15 16z m699 -19 c10 -25 -10 -39 -23 -15 -10 19 -6 32 10 32 4 0 10 -8
13 -17z m111 -13 c-5 -8 -11 -8 -17 -2 -6 6 -7 16 -3 22 5 8 11 8 17 2 6 -6 7
-16 3 -22z m-1455 -20 c0 -5 -4 -10 -10 -10 -5 0 -10 5 -10 10 0 6 5 10 10 10
6 0 10 -4 10 -10z m-30 -30 c0 -5 -7 -10 -15 -10 -8 0 -15 5 -15 10 0 6 7 10
15 10 8 0 15 -4 15 -10z m278 -174 c-7 -8 -15 -12 -17 -11 -5 6 10 25 20 25 5
0 4 -6 -3 -14z m-108 -10 c0 -3 -4 -8 -10 -11 -5 -3 -10 -1 -10 4 0 6 5 11 10
11 6 0 10 -2 10 -4z m16 -83 c-2 -2 -11 0 -20 3 -14 5 -15 9 -5 15 12 7 34
-10 25 -18z"/>
<path d="M912 1313 c5 -25 28 -28 28 -4 0 12 -6 21 -16 21 -9 0 -14 -7 -12
-17z"/>
<path d="M803 983 c-36 -14 3 -59 42 -49 27 7 35 36 10 36 -8 0 -15 5 -15 10
0 10 -16 12 -37 3z"/>
<path d="M903 972 c9 -10 17 -24 17 -30 0 -7 5 -12 11 -12 20 0 4 43 -20 52
-24 8 -24 8 -8 -10z"/>
<path d="M1007 964 c-4 -4 -4 -11 -1 -15 7 -13 44 -11 44 2 0 5 5 7 10 4 6 -3
10 -1 10 4 0 12 -52 15 -63 5z"/>
<path d="M922 848 c-23 -23 -14 -48 16 -48 38 0 44 8 25 36 -17 27 -24 29 -41
12z"/>
<path d="M907 763 c-10 -9 25 -32 48 -32 11 0 14 3 8 6 -24 9 -13 25 12 19 14
-4 25 -2 25 4 0 11 -83 14 -93 3z"/>
<path d="M236 637 c3 -10 9 -15 12 -12 3 3 0 11 -7 18 -10 9 -11 8 -5 -6z"/>
<path d="M760 604 c0 -14 4 -23 9 -20 5 3 7 15 4 26 -7 28 -13 25 -13 -6z"/>
<path d="M811 594 c0 -11 3 -14 6 -6 3 7 2 16 -1 19 -3 4 -6 -2 -5 -13z"/>
<path d="M371 565 c-6 -43 9 -160 22 -183 17 -27 25 1 24 85 -1 55 -5 93 -13
101 -17 16 -30 15 -33 -3z"/>
<path d="M735 570 c-3 -5 -1 -10 4 -10 6 0 11 5 11 10 0 6 -2 10 -4 10 -3 0
-8 -4 -11 -10z"/>
<path d="M781 554 c0 -11 3 -14 6 -6 3 7 2 16 -1 19 -3 4 -6 -2 -5 -13z"/>
<path d="M730 520 c0 -5 4 -10 9 -10 6 0 13 5 16 10 3 6 -1 10 -9 10 -9 0 -16
-4 -16 -10z"/>
<path d="M320 459 c0 -5 5 -7 10 -4 6 3 10 8 10 11 0 2 -4 4 -10 4 -5 0 -10
-5 -10 -11z"/>
<path d="M270 410 c0 -11 4 -20 9 -20 5 0 7 9 4 20 -3 11 -7 20 -9 20 -2 0 -4
-9 -4 -20z"/>
<path d="M345 410 c6 -20 5 -23 -6 -12 -18 17 -39 15 -39 -3 0 -8 -9 -15 -20
-15 -12 0 -17 -5 -14 -14 7 -18 44 -8 44 12 0 13 2 13 13 -3 26 -34 51 10 26
45 -8 11 -9 9 -4 -10z"/>
<path d="M1230 403 c0 -7 0 -16 -1 -20 -2 -19 19 -11 29 11 10 22 9 25 -9 23
-10 -1 -19 -7 -19 -14z"/>
<path d="M959 383 c0 -11 -3 -13 -6 -5 -11 27 -32 12 -30 -22 3 -41 11 -51 29
-40 7 5 23 7 36 5 18 -2 22 2 22 23 0 17 -5 26 -16 26 -10 0 -14 6 -10 15 3 9
0 15 -9 15 -8 0 -15 -8 -16 -17z"/>
<path d="M1570 390 c0 -5 7 -7 15 -4 8 4 15 8 15 10 0 2 -7 4 -15 4 -8 0 -15
-4 -15 -10z"/>
<path d="M870 379 c0 -5 5 -7 10 -4 6 3 10 8 10 11 0 2 -4 4 -10 4 -5 0 -10
-5 -10 -11z"/>
<path d="M1560 361 c0 -6 4 -13 10 -16 6 -3 7 1 4 9 -7 18 -14 21 -14 7z"/>
<path d="M895 350 c-3 -6 1 -7 9 -4 18 7 21 14 7 14 -6 0 -13 -4 -16 -10z"/>
<path d="M1595 330 c7 -11 45 -33 45 -26 0 2 -7 12 -16 20 -17 18 -39 22 -29
6z"/>
<path d="M1286 315 c-4 -13 -2 -14 14 -5 23 13 26 20 6 20 -8 0 -16 -7 -20
-15z"/>
<path d="M173 294 c0 -16 13 -19 21 -5 3 5 0 11 -7 14 -8 3 -14 -1 -14 -9z"/>
<path d="M270 295 c-14 -7 -27 -9 -30 -5 -3 5 -12 5 -20 0 -12 -7 -12 -13 -1
-34 17 -31 42 -42 53 -21 12 20 32 20 24 -1 -5 -12 0 -15 24 -12 17 1 34 -2
38 -9 12 -19 36 2 28 23 -6 16 -9 16 -17 4 -9 -12 -10 -12 -5 3 3 9 1 17 -5
17 -6 0 -7 5 -3 12 5 7 3 8 -6 3 -10 -6 -12 -4 -7 8 4 11 2 14 -7 11 -8 -3
-17 -1 -21 5 -8 14 -14 13 -45 -4z m61 -21 c10 -13 10 -17 -1 -24 -19 -12 -29
-4 -27 20 2 24 10 25 28 4z m-61 -19 c0 -12 -19 -12 -23 0 -4 9 -1 12 9 8 7
-3 14 -7 14 -8z"/>
<path d="M397 290 c4 -16 2 -19 -13 -13 -16 6 -16 3 4 -21 12 -16 19 -32 16
-37 -3 -5 4 -9 15 -9 16 0 21 -6 21 -25 0 -24 1 -24 18 -7 15 14 15 19 5 30
-7 8 -11 17 -8 22 3 4 -2 11 -11 14 -8 3 -13 10 -10 14 6 10 -21 52 -34 52 -4
0 -6 -9 -3 -20z m20 -32 c-3 -8 -6 -5 -6 6 -1 11 2 17 5 13 3 -3 4 -12 1 -19z"/>
<path d="M445 300 c-3 -5 1 -20 11 -32 14 -20 15 -20 9 -3 -4 11 -8 26 -8 33
0 15 -4 15 -12 2z"/>
<path d="M1224 286 c-1 -14 4 -27 10 -29 8 -3 13 5 13 24 0 35 -21 39 -23 5z"/>
<path d="M1550 300 c0 -5 5 -10 11 -10 5 0 7 5 4 10 -3 6 -8 10 -11 10 -2 0
-4 -4 -4 -10z"/>
<path d="M1170 276 c0 -22 17 -28 24 -10 9 22 8 24 -9 24 -8 0 -15 -6 -15 -14z"/>
<path d="M1645 271 c-3 -5 -1 -12 5 -16 5 -3 10 1 10 9 0 18 -6 21 -15 7z"/>
<path d="M1392 250 c2 -8 10 -15 18 -15 8 0 19 -4 23 -10 5 -6 6 -2 3 8 -3 10
-6 22 -6 27 0 5 -9 8 -20 7 -13 -1 -19 -7 -18 -17z"/>
<path d="M1528 229 c-9 -9 -13 -21 -10 -25 4 -4 -1 -4 -10 -1 -11 4 -18 1 -18
-6 0 -9 -2 -9 -8 0 -11 18 -36 20 -37 3 0 -8 5 -21 12 -27 14 -15 27 -17 18
-3 -3 5 0 7 8 4 8 -3 18 0 22 6 5 8 13 6 26 -6 11 -10 19 -12 19 -6 0 7 -4 12
-10 12 -5 0 -10 7 -10 15 0 8 6 15 14 15 21 0 28 16 13 27 -8 7 -17 4 -29 -8z"/>
<path d="M1190 219 c0 -5 5 -7 10 -4 6 3 10 8 10 11 0 2 -4 4 -10 4 -5 0 -10
-5 -10 -11z"/>
<path d="M1413 163 c2 -61 3 -63 28 -61 17 1 25 7 22 15 -3 7 -1 13 5 13 6 0
12 -5 14 -11 2 -7 9 -5 17 4 11 14 9 17 -13 23 -16 4 -33 1 -43 -7 -14 -12
-16 -12 -8 0 6 10 4 12 -5 6 -9 -5 -10 -2 -6 12 4 11 2 31 -4 44 -7 19 -9 11
-7 -38z"/>
<path d="M280 199 c0 -5 5 -7 10 -4 6 3 10 8 10 11 0 2 -4 4 -10 4 -5 0 -10
-5 -10 -11z"/>
<path d="M650 200 c8 -5 22 -9 30 -9 10 0 8 3 -5 9 -27 12 -43 12 -25 0z"/>
<path d="M1225 180 c-16 -17 -16 -20 -3 -15 9 4 19 13 22 21 7 19 2 18 -19 -6z"/>
<path d="M1561 174 c0 -11 3 -14 6 -6 3 7 2 16 -1 19 -3 4 -6 -2 -5 -13z"/>
<path d="M595 170 c3 -5 8 -10 11 -10 2 0 4 5 4 10 0 6 -5 10 -11 10 -5 0 -7
-4 -4 -10z"/>
<path d="M1510 160 c0 -5 5 -10 11 -10 5 0 7 5 4 10 -3 6 -8 10 -11 10 -2 0
-4 -4 -4 -10z"/>
<path d="M467 143 c6 -16 -9 -17 -25 -1 -9 9 -12 8 -12 -4 0 -18 -20 -28 -55
-28 -19 0 -22 -4 -18 -21 3 -11 9 -16 12 -11 12 18 36 19 56 3 19 -15 19 -15
5 3 -14 17 -13 18 8 12 15 -5 31 -1 52 14 38 27 38 37 1 42 -21 3 -28 1 -24
-9z"/>
<path d="M750 115 c7 -9 15 -13 17 -11 7 7 -7 26 -19 26 -6 0 -6 -6 2 -15z"/>
<path d="M1575 110 c-3 -5 -12 -7 -20 -3 -23 8 -18 -7 10 -29 19 -15 23 -25
18 -48 -5 -27 -3 -30 19 -30 35 0 56 28 56 78 l1 42 -39 0 c-21 0 -41 -4 -45
-10z m25 -15 c0 -8 -4 -15 -10 -15 -5 0 -10 7 -10 15 0 8 5 15 10 15 6 0 10
-7 10 -15z m50 -51 c0 -8 -5 -12 -10 -9 -6 4 -8 11 -5 16 9 14 15 11 15 -7z"/>
<path d="M526 93 c-6 -14 -5 -15 5 -6 7 7 10 15 7 18 -3 3 -9 -2 -12 -12z"/>
<path d="M480 74 c0 -8 5 -12 10 -9 6 3 10 10 10 16 0 5 -4 9 -10 9 -5 0 -10
-7 -10 -16z"/>
<path d="M535 68 c-4 -10 -10 -16 -14 -14 -4 3 -13 1 -21 -5 -12 -7 -12 -9 3
-9 10 0 15 -4 12 -10 -3 -5 1 -10 10 -10 18 0 29 21 22 47 -4 17 -4 17 -12 1z"/>
<path d="M1405 69 c-4 -6 -5 -12 -2 -15 2 -3 7 2 10 11 7 17 1 20 -8 4z"/>
<path d="M1493 58 c1 -19 27 -26 27 -7 0 6 9 8 23 4 18 -6 20 -5 10 6 -20 20
-62 18 -60 -3z"/>
<path d="M62 58 c-7 -7 -12 -22 -12 -35 0 -20 5 -23 34 -23 26 0 36 5 41 20
12 39 -35 66 -63 38z"/>
<path d="M425 30 c3 -5 8 -10 11 -10 2 0 4 5 4 10 0 6 -5 10 -11 10 -5 0 -7
-4 -4 -10z"/>
<path d="M450 8 c0 -11 12 -10 30 2 12 7 10 9 -8 7 -12 0 -22 -5 -22 -9z"/>
<path d="M555 10 c3 -5 11 -10 16 -10 6 0 7 5 4 10 -3 6 -11 10 -16 10 -6 0
-7 -4 -4 -10z"/>
<path d="M408 3 c7 -3 16 -2 19 1 4 3 -2 6 -13 5 -11 0 -14 -3 -6 -6z"/>
</g>
</svg>
